<mxfile host="app.diagrams.net" modified="2024-03-14T12:46:42.962Z" agent="Mozilla/5.0 (Windows NT 10.0; Win64; x64) AppleWebKit/537.36 (KHTML, like Gecko) Chrome/122.0.0.0 Safari/537.36" etag="TQwScHeowP5cpanV_CCW" version="23.1.4" type="github">
  <diagram name="Page-1" id="tbbg5TbOJueq9uBa6SpN">
    <mxGraphModel dx="1434" dy="858" grid="1" gridSize="10" guides="1" tooltips="1" connect="1" arrows="1" fold="1" page="1" pageScale="1" pageWidth="1100" pageHeight="850" math="0" shadow="0">
      <root>
        <mxCell id="0" />
        <mxCell id="1" parent="0" />
        <mxCell id="tY2xYPx88JkAZX4djH8J-26" value="" style="rounded=0;whiteSpace=wrap;html=1;fillColor=#fff2cc;strokeColor=#d6b656;" vertex="1" parent="1">
          <mxGeometry x="500" y="310" width="400" height="120" as="geometry" />
        </mxCell>
        <mxCell id="tY2xYPx88JkAZX4djH8J-25" value="" style="rounded=0;whiteSpace=wrap;html=1;fillColor=#fff2cc;strokeColor=#d6b656;" vertex="1" parent="1">
          <mxGeometry x="500" y="150" width="400" height="130" as="geometry" />
        </mxCell>
        <mxCell id="tY2xYPx88JkAZX4djH8J-3" value="" style="edgeStyle=orthogonalEdgeStyle;rounded=0;orthogonalLoop=1;jettySize=auto;html=1;fontSize=20;" edge="1" parent="1" source="tY2xYPx88JkAZX4djH8J-1" target="tY2xYPx88JkAZX4djH8J-2">
          <mxGeometry relative="1" as="geometry" />
        </mxCell>
        <mxCell id="tY2xYPx88JkAZX4djH8J-1" value="A" style="rounded=0;whiteSpace=wrap;html=1;fontSize=20;" vertex="1" parent="1">
          <mxGeometry x="120" y="200" width="120" height="60" as="geometry" />
        </mxCell>
        <mxCell id="tY2xYPx88JkAZX4djH8J-5" value="" style="edgeStyle=orthogonalEdgeStyle;rounded=0;orthogonalLoop=1;jettySize=auto;html=1;fontSize=20;" edge="1" parent="1" source="tY2xYPx88JkAZX4djH8J-2" target="tY2xYPx88JkAZX4djH8J-4">
          <mxGeometry relative="1" as="geometry" />
        </mxCell>
        <mxCell id="tY2xYPx88JkAZX4djH8J-2" value="Graph" style="rounded=0;whiteSpace=wrap;html=1;fontSize=20;" vertex="1" parent="1">
          <mxGeometry x="320" y="200" width="120" height="60" as="geometry" />
        </mxCell>
        <mxCell id="tY2xYPx88JkAZX4djH8J-7" value="" style="edgeStyle=orthogonalEdgeStyle;rounded=0;orthogonalLoop=1;jettySize=auto;html=1;fontSize=20;" edge="1" parent="1" source="tY2xYPx88JkAZX4djH8J-4" target="tY2xYPx88JkAZX4djH8J-6">
          <mxGeometry relative="1" as="geometry" />
        </mxCell>
        <mxCell id="tY2xYPx88JkAZX4djH8J-4" value="GraphNet" style="rounded=0;whiteSpace=wrap;html=1;fontSize=20;" vertex="1" parent="1">
          <mxGeometry x="520" y="200" width="120" height="60" as="geometry" />
        </mxCell>
        <mxCell id="tY2xYPx88JkAZX4djH8J-20" value="" style="edgeStyle=orthogonalEdgeStyle;rounded=0;orthogonalLoop=1;jettySize=auto;html=1;" edge="1" parent="1" source="tY2xYPx88JkAZX4djH8J-6" target="tY2xYPx88JkAZX4djH8J-19">
          <mxGeometry relative="1" as="geometry" />
        </mxCell>
        <mxCell id="tY2xYPx88JkAZX4djH8J-23" style="edgeStyle=orthogonalEdgeStyle;rounded=0;orthogonalLoop=1;jettySize=auto;html=1;entryX=0.5;entryY=0;entryDx=0;entryDy=0;" edge="1" parent="1" source="tY2xYPx88JkAZX4djH8J-6" target="tY2xYPx88JkAZX4djH8J-4">
          <mxGeometry relative="1" as="geometry">
            <Array as="points">
              <mxPoint x="880" y="230" />
              <mxPoint x="880" y="180" />
              <mxPoint x="580" y="180" />
            </Array>
          </mxGeometry>
        </mxCell>
        <mxCell id="tY2xYPx88JkAZX4djH8J-6" value="Output graph" style="rounded=0;whiteSpace=wrap;html=1;fontSize=20;" vertex="1" parent="1">
          <mxGeometry x="720" y="200" width="140" height="60" as="geometry" />
        </mxCell>
        <mxCell id="tY2xYPx88JkAZX4djH8J-8" value="" style="edgeStyle=orthogonalEdgeStyle;rounded=0;orthogonalLoop=1;jettySize=auto;html=1;fontSize=20;" edge="1" parent="1" source="tY2xYPx88JkAZX4djH8J-9" target="tY2xYPx88JkAZX4djH8J-11">
          <mxGeometry relative="1" as="geometry" />
        </mxCell>
        <mxCell id="tY2xYPx88JkAZX4djH8J-9" value="A" style="rounded=0;whiteSpace=wrap;html=1;fontSize=20;" vertex="1" parent="1">
          <mxGeometry x="120" y="350" width="120" height="60" as="geometry" />
        </mxCell>
        <mxCell id="tY2xYPx88JkAZX4djH8J-10" value="" style="edgeStyle=orthogonalEdgeStyle;rounded=0;orthogonalLoop=1;jettySize=auto;html=1;fontSize=20;" edge="1" parent="1" source="tY2xYPx88JkAZX4djH8J-11" target="tY2xYPx88JkAZX4djH8J-13">
          <mxGeometry relative="1" as="geometry" />
        </mxCell>
        <mxCell id="tY2xYPx88JkAZX4djH8J-11" value="Graph" style="rounded=0;whiteSpace=wrap;html=1;fontSize=20;" vertex="1" parent="1">
          <mxGeometry x="320" y="350" width="120" height="60" as="geometry" />
        </mxCell>
        <mxCell id="tY2xYPx88JkAZX4djH8J-12" value="" style="edgeStyle=orthogonalEdgeStyle;rounded=0;orthogonalLoop=1;jettySize=auto;html=1;fontSize=20;" edge="1" parent="1" source="tY2xYPx88JkAZX4djH8J-13" target="tY2xYPx88JkAZX4djH8J-14">
          <mxGeometry relative="1" as="geometry" />
        </mxCell>
        <mxCell id="tY2xYPx88JkAZX4djH8J-13" value="GraphNet" style="rounded=0;whiteSpace=wrap;html=1;fontSize=20;" vertex="1" parent="1">
          <mxGeometry x="520" y="350" width="120" height="60" as="geometry" />
        </mxCell>
        <mxCell id="tY2xYPx88JkAZX4djH8J-22" value="" style="edgeStyle=orthogonalEdgeStyle;rounded=0;orthogonalLoop=1;jettySize=auto;html=1;" edge="1" parent="1" source="tY2xYPx88JkAZX4djH8J-14" target="tY2xYPx88JkAZX4djH8J-21">
          <mxGeometry relative="1" as="geometry" />
        </mxCell>
        <mxCell id="tY2xYPx88JkAZX4djH8J-24" style="edgeStyle=orthogonalEdgeStyle;rounded=0;orthogonalLoop=1;jettySize=auto;html=1;entryX=0.5;entryY=0;entryDx=0;entryDy=0;" edge="1" parent="1" source="tY2xYPx88JkAZX4djH8J-14" target="tY2xYPx88JkAZX4djH8J-13">
          <mxGeometry relative="1" as="geometry">
            <Array as="points">
              <mxPoint x="880" y="380" />
              <mxPoint x="880" y="330" />
              <mxPoint x="580" y="330" />
            </Array>
          </mxGeometry>
        </mxCell>
        <mxCell id="tY2xYPx88JkAZX4djH8J-14" value="Output graph" style="rounded=0;whiteSpace=wrap;html=1;fontSize=20;" vertex="1" parent="1">
          <mxGeometry x="720" y="350" width="140" height="60" as="geometry" />
        </mxCell>
        <mxCell id="tY2xYPx88JkAZX4djH8J-28" value="" style="edgeStyle=orthogonalEdgeStyle;rounded=0;orthogonalLoop=1;jettySize=auto;html=1;" edge="1" parent="1" source="tY2xYPx88JkAZX4djH8J-19" target="tY2xYPx88JkAZX4djH8J-27">
          <mxGeometry relative="1" as="geometry" />
        </mxCell>
        <mxCell id="tY2xYPx88JkAZX4djH8J-19" value="L" style="rounded=0;whiteSpace=wrap;html=1;fontSize=20;" vertex="1" parent="1">
          <mxGeometry x="920" y="200" width="120" height="60" as="geometry" />
        </mxCell>
        <mxCell id="tY2xYPx88JkAZX4djH8J-29" style="edgeStyle=orthogonalEdgeStyle;rounded=0;orthogonalLoop=1;jettySize=auto;html=1;entryX=0.5;entryY=1;entryDx=0;entryDy=0;" edge="1" parent="1" source="tY2xYPx88JkAZX4djH8J-21" target="tY2xYPx88JkAZX4djH8J-27">
          <mxGeometry relative="1" as="geometry" />
        </mxCell>
        <mxCell id="tY2xYPx88JkAZX4djH8J-21" value="U" style="rounded=0;whiteSpace=wrap;html=1;fontSize=20;" vertex="1" parent="1">
          <mxGeometry x="920" y="350" width="120" height="60" as="geometry" />
        </mxCell>
        <mxCell id="tY2xYPx88JkAZX4djH8J-31" value="" style="edgeStyle=orthogonalEdgeStyle;rounded=0;orthogonalLoop=1;jettySize=auto;html=1;" edge="1" parent="1" source="tY2xYPx88JkAZX4djH8J-27" target="tY2xYPx88JkAZX4djH8J-30">
          <mxGeometry relative="1" as="geometry" />
        </mxCell>
        <mxCell id="tY2xYPx88JkAZX4djH8J-27" value="P" style="rounded=0;whiteSpace=wrap;html=1;fontSize=20;" vertex="1" parent="1">
          <mxGeometry x="1100" y="280" width="120" height="60" as="geometry" />
        </mxCell>
        <mxCell id="tY2xYPx88JkAZX4djH8J-30" value="loss = ||Px-b||" style="rounded=0;whiteSpace=wrap;html=1;fontSize=20;" vertex="1" parent="1">
          <mxGeometry x="1300" y="280" width="140" height="60" as="geometry" />
        </mxCell>
      </root>
    </mxGraphModel>
  </diagram>
</mxfile>
